PathFileType	4	(X/Y/Z)	/Users/itak/Documents/Research/Walk-IL/dataset/trc/00312_00010.trc
DataRate	CameraRate	NumFrames	NumMarkers	Units	OrigDataRate	OrigDataStartFrame	OrigNumFrames
100.000000	100.000000	4	53	mm	100.000000	407	543
Frame#	Time	RPSI			LPSI			L3			STRN			T10			C7			CLAV			RBAK			LBAK			LSHO			LUPA			LAEL			LAOL			LWTS			LWPS			LFRA			LIFD			LHPS			LHTS			RSHO			RUPA			RAEL			RAOL			RWTS			RWPS			RFRA			RIFD			RHTS			RHPS			RBHD			LFHD			RFHD			LBHD			LHIP			RHIP			RASI			LASI			LKNE			LTHI			LANK			LTIP			LTOE			LMT1			LMT5			LHEE			RKNE			RTHI			RANK			RTIP			RTOE			RMT1			RMT5			RHEE			
		X1	Y1	Z1	X2	Y2	Z2	X3	Y3	Z3	X4	Y4	Z4	X5	Y5	Z5	X6	Y6	Z6	X7	Y7	Z7	X8	Y8	Z8	X9	Y9	Z9	X10	Y10	Z10	X11	Y11	Z11	X12	Y12	Z12	X13	Y13	Z13	X14	Y14	Z14	X15	Y15	Z15	X16	Y16	Z16	X17	Y17	Z17	X18	Y18	Z18	X19	Y19	Z19	X20	Y20	Z20	X21	Y21	Z21	X22	Y22	Z22	X23	Y23	Z23	X24	Y24	Z24	X25	Y25	Z25	X26	Y26	Z26	X27	Y27	Z27	X28	Y28	Z28	X29	Y29	Z29	X30	Y30	Z30	X31	Y31	Z31	X32	Y32	Z32	X33	Y33	Z33	X34	Y34	Z34	X35	Y35	Z35	X36	Y36	Z36	X37	Y37	Z37	X38	Y38	Z38	X39	Y39	Z39	X40	Y40	Z40	X41	Y41	Z41	X42	Y42	Z42	X43	Y43	Z43	X44	Y44	Z44	X45	Y45	Z45	X46	Y46	Z46	X47	Y47	Z47	X48	Y48	Z48	X49	Y49	Z49	X50	Y50	Z50	X51	Y51	Z51	X52	Y52	Z52	X53	Y53	Z53	

408	4.07	380.4776000976562	969.802978515625	373.9525146484375	555.2380981445312	963.93896484375	384.4666442871094	457.7291564941406	1036.038818359375	388.5657348632812	478.251953125	1227.75439453125	615.3004760742188	451.4976806640625	1142.978149414062	359.2852172851562	485.7415466308594	1389.76123046875	378.8797912597656	485.7496337890625	1320.704956054688	542.3128662109375	394.8768005371094	1255.485107421875	341.0612487792969	583.4395751953125	1342.018676757812	360.9490051269531	645.4886474609375	1353.962158203125	444.5538024902344	705.3912353515625	1236.781860351562	400.8966064453125	712.5611572265625	1039.556396484375	374.4532775878906	633.3378295898438	1027.962768554688	340.7277221679688	699.714599609375	799.4166870117188	414.3717041015625	742.6903076171875	802.6859130859375	357.1700439453125	726.9775390625	935.4888305664062	361.786865234375	699.4430541992188	622.2922973632812	360.3402404785156	741.10546875	717.4484252929688	336.8146667480469	725.1363525390625	700.5914306640625	398.8011474609375	330.8658447265625	1383.588623046875	456.6160278320312	261.4046325683594	1326.053466796875	463.5008850097656	203.0164642333984	1061.927612304688	508.6713562011719	282.8179016113281	1044.28662109375	461.4251403808594	348.3274536132812	939.135498046875	673.48583984375	270.1677856445312	903.1336669921875	675.5050659179688	215.6712799072266	1013.352478027344	564.2608032226562	410.417236328125	796.9159545898438	775.8196411132812	378.8006591796875	865.2677612304688	763.8333740234375	316.7691345214844	831.2382202148438	750.3472900390625	430.6111755371094	1551.93115234375	388.6707458496094	552.2178344726562	1602.293701171875	557.047119140625	459.3485107421875	1603.932739257812	554.3853759765625	576.18798828125	1539.065795898438	393.9727478027344	649.4721069335938	926.449951171875	464.7692260742188	274.0617980957031	928.7113037109375	477.4034729003906	335.0864868164062	925.873291015625	591.7586059570312	588.334228515625	939.172607421875	597.2706909179688	614.7694702148438	492.9581909179688	674.3262939453125	641.2035522460938	624.2142944335938	619.5123901367188	608.575439453125	44.92122268676758	679.5186157226562	621.0132446289062	258.6427307128906	684.7762451171875	518.891845703125	37.34242248535156	878.3751220703125	490.0638427734375	29.15346145629883	801.5451049804688	602.287109375	39.80401229858398	802.1973266601562	554.8915405273438	38.7352294921875	626.8748168945312	310.2325134277344	451.802001953125	426.1438293457031	280.1278381347656	703.2373657226562	501.5794067382812	319.0977478027344	108.4694519042969	129.5543212890625	322.5283203125	335.9052734375	371.3633422851562	439.1347045898438	38.83369445800781	255.1272583007812	452.0976867675781	55.09280776977539	197.8792114257812	335.1183776855469	41.91553497314453	214.4724578857422	348.7479553222656	144.3329010009766	74.44200897216797	
409	4.08	384.5953674316406	971.3992919921875	382.2497863769531	559.2179565429688	966.4916381835938	394.4412536621094	461.0473937988281	1038.5400390625	397.3286437988281	480.0764465332031	1230.365844726562	624.0068969726562	454.6022644042969	1145.049926757812	368.021240234375	489.2011108398438	1391.663818359375	387.1650695800781	488.2022094726562	1323.13671875	550.7803955078125	398.0758972167969	1257.5546875	349.7073059082031	586.7756958007812	1343.409301757812	369.8053894042969	648.3523559570312	1355.61279296875	453.6708374023438	708.7843017578125	1238.239135742188	411.3695678710938	716.9550170898438	1040.653564453125	387.3931274414062	638.1509399414062	1028.451049804688	352.8551635742188	704.956298828125	801.4951171875	432.4439086914062	748.1431274414062	803.4962158203125	375.3366088867188	731.8001098632812	936.2894897460938	376.7803344726562	706.172119140625	623.0487670898438	383.41259765625	747.1953125	717.7689819335938	357.3182678222656	731.1475830078125	702.5117797851562	419.6689453125	334.1004333496094	1386.534423828125	464.3040466308594	264.2125549316406	1329.566284179688	471.292236328125	205.2566070556641	1065.454956054688	515.9573364257812	284.8163757324219	1048.043090820312	468.2781982421875	347.596923828125	935.218505859375	677.96630859375	268.7196044921875	900.6962280273438	678.4591674804688	217.0973358154297	1015.317199707031	570.3545532226562	406.2115173339844	788.3726196289062	775.703857421875	375.9994506835938	857.7033081054688	765.882568359375	313.4254760742188	825.3704833984375	751.0852661132812	434.7196044921875	1553.996948242188	396.0874328613281	555.7009887695312	1604.217163085938	564.9577026367188	462.8512268066406	1606.161376953125	561.8497314453125	580.2322387695312	1540.654418945312	402.0967102050781	652.8082885742188	929.5769653320312	475.9829711914062	278.2169494628906	930.2245483398438	485.6988830566406	337.0140380859375	928.0515747070312	599.36767578125	589.9828491210938	941.8967895507812	607.6179809570312	616.4462890625	492.8290100097656	678.9072875976562	643.31982421875	625.0289306640625	626.4923095703125	608.5697631835938	44.95079040527344	679.679931640625	621.6937255859375	258.4824829101562	687.0863647460938	518.736328125	36.95578765869141	878.5281982421875	489.9554443359375	29.11666488647461	801.5167236328125	602.1412353515625	39.69454574584961	802.3177490234375	554.9501342773438	38.95552062988281	626.9412231445312	309.0259704589844	453.3376159667969	436.1568298339844	281.5440368652344	705.18701171875	509.5079040527344	320.1485595703125	113.8877944946289	134.8805236816406	320.6194763183594	338.3992004394531	379.9317932128906	439.0955810546875	38.91711044311523	255.7388000488281	452.2161560058594	56.92510223388672	200.4996795654297	335.2077331542969	43.20841598510742	216.5359802246094	350.1226501464844	152.2592010498047	81.86716461181641	
410	4.09	388.9688110351562	972.95166015625	390.071533203125	563.414306640625	968.9854125976562	404.3148193359375	464.5800476074219	1040.99072265625	405.8750305175781	481.7141723632812	1232.8046875	632.5293579101562	457.8887634277344	1147.017822265625	376.6079711914062	492.5857543945312	1393.417114257812	395.341552734375	490.4964904785156	1325.444091796875	559.1322021484375	401.3855895996094	1259.454345703125	358.1979064941406	590.1085205078125	1344.736938476562	378.6161193847656	651.1340942382812	1357.199096679688	462.7767944335938	712.1303100585938	1239.64599609375	421.8255004882812	721.3040771484375	1041.692260742188	400.332275390625	642.9658203125	1028.886108398438	364.9154663085938	710.0137939453125	803.7605590820312	450.7820434570312	753.4711303710938	804.3583374023438	393.8421325683594	736.5616455078125	937.0647583007812	391.8916931152344	712.6986083984375	624.0367431640625	407.2489013671875	753.1311645507812	718.1615600585938	378.3707885742188	736.8925170898438	704.669921875	441.0441589355469	337.2231140136719	1389.26953125	471.7488708496094	266.9325866699219	1332.842041015625	478.8193969726562	207.2959442138672	1068.863891601562	523.43603515625	286.4247131347656	1051.573852539062	475.0440673828125	346.4870910644531	931.0303955078125	682.1129150390625	266.9173889160156	898.1656494140625	681.2218627929688	218.3240356445312	1017.179992675781	576.532958984375	401.5926208496094	779.595458984375	774.7451171875	372.8751831054688	849.8438720703125	767.2965087890625	309.7291564941406	819.34375	751.3367309570312	438.7436828613281	1556.05078125	403.4353942871094	559.1041870117188	1606.00048828125	572.8311157226562	466.2739868164062	1608.292602539062	569.271728515625	584.1800537109375	1542.155517578125	410.1610717773438	656.1356811523438	932.4877319335938	487.1612854003906	282.6268920898438	931.6929321289062	493.5190124511719	338.7250671386719	930.1890258789062	606.4493408203125	591.4111938476562	944.3510131835938	617.7913818359375	617.9237670898438	492.5769958496094	683.047607421875	645.2317504882812	625.6361694335938	633.0559692382812	608.4951171875	44.96030426025391	679.814208984375	622.2870483398438	258.2567443847656	688.9821166992188	518.5579223632812	36.66839218139648	878.6907348632812	489.8484497070312	29.06775093078613	801.5100708007812	601.9534301757812	39.60678482055664	802.4068603515625	554.9208374023438	39.18489456176758	627.002685546875	307.6076049804688	454.8306884765625	446.5393676757812	282.8344116210938	707.19287109375	517.132568359375	321.2742309570312	119.5578765869141	140.6686553955078	318.6226196289062	340.8464050292969	388.9853210449219	439.0072937011719	38.88595199584961	256.7756652832031	452.3456726074219	59.11078262329102	203.6566314697266	335.2374877929688	44.87540054321289	218.7481536865234	351.4492492675781	160.3667907714844	89.88241577148438	
411	4.1	393.513916015625	974.4215087890625	397.4222412109375	567.7393798828125	971.384033203125	414.0304565429688	468.27392578125	1043.337036132812	414.1985473632812	483.1672668457031	1235.031616210938	640.8516845703125	461.3382873535156	1148.872680664062	385.0263671875	495.9090576171875	1395.020141601562	403.4071655273438	492.6357727050781	1327.59423828125	567.360107421875	404.804443359375	1261.186767578125	366.4970397949219	593.4498901367188	1345.995239257812	387.3864440917969	653.8453369140625	1358.700439453125	471.8782348632812	715.431884765625	1240.966064453125	432.2816467285156	725.5914306640625	1042.652221679688	413.282470703125	647.7642211914062	1029.23095703125	376.9366149902344	714.8930053710938	806.1959228515625	469.3462829589844	758.6649780273438	805.2862548828125	412.648193359375	741.2525024414062	937.8064575195312	407.1218566894531	719.0204467773438	625.2918701171875	431.7228393554688	758.90380859375	718.661376953125	399.9006652832031	742.3709106445312	707.0728149414062	462.84033203125	340.2341003417969	1391.76708984375	478.9512329101562	269.5756225585938	1335.832641601562	486.0653076171875	209.1998138427734	1072.090698242188	531.0416870117188	287.7406005859375	1054.814208984375	481.7147521972656	345.0225219726562	926.595947265625	685.9151611328125	264.7751159667969	895.5748291015625	683.8006591796875	219.3929138183594	1018.900146484375	582.7510375976562	396.5493469238281	770.6978149414062	773.0111083984375	369.4503784179688	841.7845458984375	768.1033935546875	305.6736450195312	813.2490844726562	751.1458129882812	442.6780700683594	1558.061157226562	410.7143249511719	562.4148559570312	1607.646362304688	580.6603393554688	469.6069946289062	1610.3212890625	576.6451416015625	588.0274047851562	1543.556640625	418.1682434082031	659.411376953125	935.1619262695312	498.2173156738281	287.209228515625	933.0781860351562	500.8682556152344	340.2457275390625	932.2479858398438	613.0340576171875	592.64697265625	946.515625	627.7373046875	619.193359375	492.2650756835938	686.86279296875	646.9217529296875	626.1221923828125	639.3104858398438	608.3639526367188	44.96359252929688	679.9268798828125	622.813720703125	258.0167541503906	690.5442504882812	518.3640747070312	36.44099426269531	878.8739624023438	489.7457580566406	29.00686073303223	801.526611328125	601.731689453125	39.53424453735352	802.4673461914062	554.8146362304688	39.4241943359375	627.0626831054688	306.0439453125	456.2640380859375	457.3325805664062	284.0191650390625	709.1998901367188	524.4827270507812	322.4852905273438	125.5234680175781	146.9317474365234	316.6033020019531	343.2144470214844	398.5668029785156	438.7805480957031	38.69080352783203	258.4319458007812	452.4944152832031	61.69892883300781	207.5431518554688	335.2034606933594	46.99150466918945	221.1302337646484	352.776611328125	168.6298980712891	98.48114776611328	
